<svg width="227" height="64" viewBox="0 0 227 64" fill="none" xmlns="http://www.w3.org/2000/svg">
<path d="M22.1242 19.6501C22.5763 23.2669 22.9223 25.6952 23.0935 32.7114C23.2509 39.1608 23.1517 51.4823 23.1517 56.5856C23.1517 61.6889 23.1517 59.2023 23.2082 57.6953C23.3799 53.1172 23.7203 47.8586 23.8932 45.5176C23.9577 44.6454 24.1792 38.9981 24.0662 30.7797C24.0213 27.5171 23.3812 26.8461 23.0404 26.2193C22.8651 25.8969 22.4736 25.7055 22.0163 25.5891C21.5591 25.4726 20.994 25.4726 20.5898 25.6422C18.6446 26.4581 17.6785 30.0279 16.3068 31.0092C14.5061 32.2974 11.9793 24.9315 10.7668 22.111C10.0905 20.5375 9.56807 19.198 9.22557 18.852C7.93344 17.547 8.54056 22.4928 8.3676 24.6112C8.21406 26.4917 8.53371 17.9581 9.27694 15.6051C9.48424 14.9488 10.0133 14.0741 10.4158 13.7214C10.8182 13.3686 11.1573 13.5946 11.5015 13.8241C12.782 14.6778 13.2157 15.8791 13.9555 16.3364C15.4168 17.2395 16.7538 14.5194 18.2933 13.0911C19.1218 12.3225 19.6102 11.4334 20.1223 11.0327C21.2804 10.1264 22.0078 13.1391 22.5198 13.4833C23.7585 14.316 24.5149 11.3204 28.2173 6.5973C30.1283 4.15949 31.0259 3.3264 31.7092 3.04041C32.0315 2.90551 32.3925 3.09349 32.6236 3.32126C34.0028 4.68 34.9064 7.99128 35.8774 9.88361C36.0632 10.2456 36.5025 10.2861 37.0162 10.2313C39.3522 9.98208 40.3865 8.80644 41.241 8.63348C41.6389 8.55295 41.9825 9.02564 42.2137 9.53939C44.1583 13.8607 42.4483 20.6707 42.2189 22.8405C42.0417 24.5153 41.4208 29.9115 40.8506 31.2935C40.2972 32.6345 38.9137 28.9045 38.1105 27.5893C37.7118 26.9364 37.0813 26.5036 36.7405 26.1028C36.3582 25.6532 35.5983 27.6304 34.8002 29.2915C34.6003 29.7078 34.3447 30.1444 34.0587 30.4338C33.7727 30.7232 33.4337 30.8362 33.2025 30.6684C30.8999 28.9969 30.1182 24.2259 29.2637 22.6812C29.0254 22.2504 28.6386 21.8284 28.2944 21.7085C27.9502 21.5886 27.6111 21.8147 27.3234 22.1007C26.2101 23.2074 26.0082 24.4417 25.5527 24.7859C24.3962 25.6598 23.7237 22.736 23.3829 22.1658C23.2164 21.8872 22.8161 21.8215 22.4719 21.9894C20.763 22.8225 20.4151 24.3287 19.7318 24.6147C18.3823 25.1795 16.9935 22.9655 15.5088 22.4483C15.0735 22.2967 14.4864 22.3901 14.1388 22.5596C12.8968 23.1653 12.8801 24.6712 12.1968 24.9572C11.5646 25.2218 10.712 24.7876 10.027 25.0137C8.27852 25.5907 7.97201 29.0004 6.48897 31.5144C6.14784 32.0926 5.91699 32.5419 5.631 32.6618C5.34501 32.7816 5.00593 32.5556 4.77474 32.6087C4.54355 32.6618 4.43053 33.0008 4.25928 33.006C2.90286 33.0467 3.06052 29.5964 3.00058 25.3168C2.98839 24.4468 3.17012 24.1095 3.39788 23.8783C3.62565 23.6471 3.96472 23.5341 4.30894 23.5889C5.03851 23.705 5.45461 24.4417 5.62586 24.6729C6.64724 26.0517 6.02659 21.1434 6.19613 19.7169C6.26094 19.1716 6.70475 19.0815 7.04896 19.1363C7.39318 19.1911 7.73225 19.4172 8.07647 19.4206C8.79508 19.4277 9.33517 18.626 9.84721 18.1688C10.3135 17.7524 11.0477 18.6191 11.5597 19.0764C12.5713 19.9797 14.0138 17.6019 15.2125 16.5145C16.4114 15.4269 17.2127 14.516 17.7248 14.0587C18.191 13.6424 18.9252 14.5091 19.4373 14.9098C20.7196 15.9134 21.8913 12.1219 23.1466 9.95382C23.4354 9.45497 23.8299 9.26539 24.2306 9.31848C26.0088 9.55405 26.5699 11.7657 27.7139 13.2521C27.9665 13.5804 28.5085 13.485 28.9109 13.3155C29.7396 12.9664 30.3409 12.2315 31.0807 12.115C33.3538 11.7572 33.5364 16.7799 34.7917 19.2442C34.9968 19.6469 35.475 19.424 35.7062 19.5919C36.9861 20.521 36.9649 22.0442 37.1361 22.1623C38.9247 23.3965 37.7629 18.6294 38.1636 17.8228C38.2653 17.6182 38.2218 18.8349 38.1653 19.0164C37.7927 20.2135 37.3108 16.0058 36.3432 14.7437C35.1779 13.2236 33.3172 16.4443 32.1185 17.6481C31.5476 18.2215 31.1457 18.9616 30.9728 20.1536C30.6506 22.374 31.7143 24.2122 31.8838 24.7842C31.9428 24.9833 32.3925 24.678 32.6236 24.3355C33.6942 22.7495 33.5398 20.7975 33.5981 20.1673C33.6421 19.6911 32.5192 21.2461 31.3238 21.5886C28.9501 22.2688 27.2686 20.2255 25.8969 19.2545C24.3385 18.1513 23.1552 17.369 22.5284 17.2526C19.8734 16.7593 18.4731 21.8147 17.9046 22.6692C17.6119 23.1092 17.11 23.4108 16.8771 22.9073C16.0902 21.2062 16.7572 19.198 17.098 18.4565C17.3883 17.8248 18.3533 17.5985 19.1496 17.1978C21.1373 16.1975 23.0284 19.8693 24.7444 20.4498C26.1995 20.9421 27.1385 17.7184 28.3424 16.2867C29.4342 14.9883 30.2278 13.4919 30.4008 11.7228C30.5994 9.69123 31.1423 8.69341 31.4831 8.29269C32.3635 7.2574 33.5364 10.6217 34.5074 12.2229C35.692 14.1763 36.5059 15.0811 37.1892 15.3671C38.4415 15.8912 39.2459 14.057 39.7597 14.1683C39.9344 14.9578 39.7083 15.9921 39.3658 16.9597C39.2494 17.4752 39.2494 18.0403 38.9069 18.9651" stroke="black" stroke-width="6" stroke-linecap="round"/>
<path d="M66.9683 30.5016C66.4961 31.4461 65.7393 32.9596 65.452 34.668C65.1915 36.2169 64.4079 37.6083 64.0779 39.0777C63.6958 40.7787 63.3666 41.8757 63.4107 44.1489C63.4261 44.9396 64.4989 45.1987 65.2557 45.5301C67.4428 46.488 70.8489 45.4888 72.7934 44.8231C74.5183 44.2326 76.351 41.7961 77.0182 40.4632C77.9118 38.6778 79.0082 36.4817 79.2486 34.87C79.4643 33.4241 79.7707 31.742 79.6298 30.651C79.5827 30.286 79.2074 30.4049 78.9684 30.5941C77.9775 31.3785 78.0637 38.2171 78.5359 43.3878C78.7959 46.2344 78.9172 51.8843 78.1618 56.7122C77.8709 58.5717 76.7379 59.799 75.745 60.6084C74.5049 61.6194 72.6639 60.7549 71.2884 60.5643C69.7759 60.3547 68.2087 58.9569 67.0665 58.2897C66.5908 58.0119 66.59 57.2471 66.4946 56.6326C66.3852 55.9266 67.4349 55.1617 68.5288 54.166C70.3304 52.526 73.5004 51.4633 77.7593 49.5714C80.8745 48.4362 83.93 47.1987 86.1092 46.109C86.9741 45.6766 87.3496 45.4888 88.021 45.2954" stroke="black" stroke-width="4" stroke-linecap="round"/>
<path d="M94.8486 30.2168C94.5641 30.4984 94.1886 31.8214 93.429 34.0959C92.8283 35.8945 92.6694 37.039 92.1004 38.1784C91.8159 39.7872 91.2469 42.0632 91.291 47.2197C91.4318 48.2339 91.7135 48.3278 92.2882 48.4245" stroke="black" stroke-width="4" stroke-linecap="round"/>
<path d="M95.4179 18.8369C95.2301 19.4002 95.0395 19.9721 94.9442 20.5396C94.849 21.1067 95.2273 21.679 95.5103 22.1058C95.7827 22.5163 96.6469 22.3447 97.3567 22.3931C97.6933 22.416 97.9727 22.1598 98.1647 21.9223C98.5373 21.4613 98.5473 20.6435 98.4065 19.7914C98.34 19.3891 97.984 19.1271 97.6981 19.0289C97.4122 18.9308 97.1306 19.0247 96.9385 19.2139C96.7465 19.4031 96.6526 19.6847 96.5559 20.5439" stroke="black" stroke-width="4" stroke-linecap="round"/>
<path d="M105.375 36.4756C105.375 35.8184 105.375 35.1612 104.999 34.7757C104.624 34.3902 103.873 34.2963 103.345 34.2949C102.53 34.2927 102.058 35.0474 101.159 35.7615C100.011 36.6733 99.8785 38.3646 99.732 40.3092C99.6213 41.7779 101.574 43.3888 102.574 44.6278C102.946 45.0891 104.322 45.0105 105.839 44.8696C107.545 44.7112 108.402 40.8568 108.836 38.3319C108.959 37.616 109.073 36.7658 109.026 36.1001C108.96 35.1594 109.358 38.3646 109.83 40.3092C110.159 41.6614 110.399 43.3888 110.402 49.6321C110.403 52.8185 109.551 54.4842 108.509 56.4785C107.823 57.7897 106.331 58.285 104.812 58.6179C103.22 58.9667 101.494 57.4373 99.833 55.9223C98.7011 54.8902 98.1715 53.551 97.7419 52.4116C97.6396 52.1403 97.6936 51.8441 97.8344 51.5581C98.8287 50.6065 100.433 50.0404 102.233 49.4244C102.999 49.184 103.469 49.0901 104.521 48.7089" stroke="black" stroke-width="4" stroke-linecap="round"/>
<path d="M117.608 38.467C117.233 37.7159 116.758 37.1412 116.237 36.9975C115.72 36.8547 115.335 37.8951 114.909 38.4627C114.154 39.4668 114.479 41.7728 115.281 43.5353C115.592 44.2172 116.183 44.6291 116.798 44.9606C117.455 45.3153 118.456 45.2949 119.591 45.0132C121.94 44.4304 121.87 41.7956 122.443 40.1327C123.114 38.1867 122.542 36.1967 122.115 35.0573C121.885 34.4424 121.497 33.9179 121.167 33.4911C120.314 32.3878 118.749 33.1554 118.229 33.4854C117.515 34.7657 117.136 35.9008 117.133 37.2763C117.227 37.6106 117.415 37.8923 118.177 38.7515" stroke="black" stroke-width="4" stroke-linecap="round"/>
<path d="M127.282 34.4844C127.282 36.1743 127.282 40.143 127.235 44.6025C127.22 45.9645 127.094 45.4944 127.045 44.8301C126.825 41.7979 128.129 39.1444 129.788 37.1458C131.262 36.1914 132.397 36.0036 134.859 36.0477C135.341 36.1885 135.435 36.4702 135.532 36.7603" stroke="black" stroke-width="4" stroke-linecap="round"/>
<path d="M137.808 21.9668C138.934 29.2897 139.515 35.4092 139.562 39.2001C139.613 43.3872 139.799 46.7208 139.752 46.0593C139.63 44.3388 139.702 42.8374 140.318 41.6013C140.877 40.4795 141.785 39.139 142.877 37.9028C143.967 36.6697 145.296 35.7193 145.771 35.6226C147.218 35.3279 143.506 38.7435 142.226 40.4462C141.648 41.215 141.791 42.1489 141.978 42.772C143.304 44.4391 144.442 45.2926 145.152 45.7663C145.486 45.9583 145.768 46.0522 146.342 46.4334" stroke="black" stroke-width="4" stroke-linecap="round"/>
<path d="M155.446 37.0451C155.446 36.8573 154.977 36.7606 154.125 36.9484C152.327 37.3446 152.51 40.7322 152.599 46.9797C152.615 48.174 153.443 48.1404 153.921 48.0466C155.55 47.7266 156.579 46.2514 157.813 44.7791C158.615 43.8233 158.764 41.8929 158.813 36.7307C158.821 35.903 158.672 36.1859 158.624 36.5657C158.419 38.1735 158.291 40.6298 158.574 42.4932C158.793 43.9328 159.711 44.8175 160.56 45.3865C161.973 45.58 163.219 45.3922 163.975 45.0608C164.357 44.9171 164.732 44.8232 165.404 44.7265" stroke="black" stroke-width="4" stroke-linecap="round"/>
<path d="M187.879 36.7607C186.934 36.1006 183.919 34.9626 181.909 35.24C180.134 35.4849 180.016 37.8929 179.015 39.8346C178.502 40.8319 178.206 42.627 178.3 44.7593C178.35 45.8932 179.151 46.5246 179.907 47.0935C181.291 48.1338 183.697 47.196 185.266 46.2472C185.847 45.8958 186.454 45.5829 186.974 44.9214C188.196 43.3694 188.163 41.0395 188.163 40.0836C188.163 38.4107 188.539 43.6796 189.249 44.2955C190.437 44.7265 191.29 44.9143 192.139 45.1988C192.707 45.2955 193.552 45.2955 194.422 45.2955" stroke="black" stroke-width="4" stroke-linecap="round"/>
<path d="M199.828 36.1914C199.734 38.5556 199.356 40.6409 199.212 43.3877C199.092 45.6772 198.881 47.2839 198.738 47.2412C196.332 46.5193 199.35 43.4062 199.967 42.0293C200.942 39.8555 202.667 38.9453 204.326 38.1857C204.755 37.9951 205.131 37.8073 205.465 37.7106C205.799 37.6139 206.081 37.6139 206.656 37.3294" stroke="black" stroke-width="4" stroke-linecap="round"/>
<path d="M218.605 22.8203C216.994 32.1006 216.238 36.0835 215.478 40.5842C214.812 43.2983 214.622 45.9441 214.245 47.5686C214.056 47.6682 213.774 47.4804 213.199 46.718" stroke="black" stroke-width="4" stroke-linecap="round"/>
<path d="M210.07 42.7346C215.327 40.8569 219.162 39.5141 221.104 38.9451C221.919 38.7516 222.388 38.7516 222.959 38.6577C223.529 38.5638 224.187 38.3761 224.864 38.1826" stroke="black" stroke-width="4" stroke-linecap="round"/>
</svg>
